<?xml version="1.0" encoding="utf-8" standalone="no"?>
<!DOCTYPE svg PUBLIC "-//W3C//DTD SVG 1.1//EN"
  "http://www.w3.org/Graphics/SVG/1.1/DTD/svg11.dtd">
<svg xmlns:xlink="http://www.w3.org/1999/xlink" width="576pt" height="432pt" viewBox="0 0 576 432" xmlns="http://www.w3.org/2000/svg" version="1.1">
 <metadata>
  <rdf:RDF xmlns:dc="http://purl.org/dc/elements/1.1/" xmlns:cc="http://creativecommons.org/ns#" xmlns:rdf="http://www.w3.org/1999/02/22-rdf-syntax-ns#">
   <cc:Work>
    <dc:type rdf:resource="http://purl.org/dc/dcmitype/StillImage"/>
    <dc:date>1980-01-01T00:00:00+00:00</dc:date>
    <dc:format>image/svg+xml</dc:format>
    <dc:creator>
     <cc:Agent>
      <dc:title>Matplotlib v3.7.2, https://matplotlib.org/</dc:title>
     </cc:Agent>
    </dc:creator>
   </cc:Work>
  </rdf:RDF>
 </metadata>
 <defs>
  <style type="text/css">*{stroke-linejoin: round; stroke-linecap: butt}</style>
 </defs>
 <g id="figure_1">
  <g id="patch_1">
   <path d="M 0 432 
L 576 432 
L 576 0 
L 0 0 
z
" style="fill: #ffffff"/>
  </g>
  <g id="axes_1">
   <g id="patch_2">
    <path d="M 60.32 390.04 
L 565.2 390.04 
L 565.2 26.88 
L 60.32 26.88 
z
" style="fill: #ffffff"/>
   </g>
   <g id="PolyCollection_1">
    <defs>
     <path id="m72967240a1" d="M 83.269091 -42.663799 
L 83.269091 -41.96 
L 85.575532 -41.96 
L 87.881974 -41.96 
L 90.188415 -41.96 
L 92.494856 -41.96 
L 94.801297 -41.96 
L 97.107739 -41.96 
L 99.41418 -41.96 
L 101.720621 -41.96 
L 104.027063 -41.96 
L 106.333504 -41.96 
L 108.639945 -41.96 
L 110.946386 -41.96 
L 113.252828 -41.96 
L 115.559269 -41.96 
L 117.86571 -41.96 
L 120.172152 -41.96 
L 122.478593 -41.96 
L 124.785034 -41.96 
L 127.091476 -41.96 
L 129.397917 -41.96 
L 131.704358 -41.96 
L 134.010799 -41.96 
L 136.317241 -41.96 
L 138.623682 -41.96 
L 140.930123 -41.96 
L 143.236565 -41.96 
L 145.543006 -41.96 
L 147.849447 -41.96 
L 150.155889 -41.96 
L 152.46233 -41.96 
L 154.768771 -41.96 
L 157.075212 -41.96 
L 159.381654 -41.96 
L 161.688095 -41.96 
L 163.994536 -41.96 
L 166.300978 -41.96 
L 168.607419 -41.96 
L 170.91386 -41.96 
L 173.220302 -41.96 
L 175.526743 -41.96 
L 177.833184 -41.96 
L 180.139625 -41.96 
L 182.446067 -41.96 
L 184.752508 -41.96 
L 187.058949 -41.96 
L 189.365391 -41.96 
L 191.671832 -41.96 
L 193.978273 -41.96 
L 196.284714 -41.96 
L 198.591156 -41.96 
L 200.897597 -41.96 
L 203.204038 -41.96 
L 205.51048 -41.96 
L 207.816921 -41.96 
L 210.123362 -41.96 
L 212.429804 -41.96 
L 214.736245 -41.96 
L 217.042686 -41.96 
L 219.349127 -41.96 
L 221.655569 -41.96 
L 223.96201 -41.96 
L 226.268451 -41.96 
L 228.574893 -41.96 
L 230.881334 -41.96 
L 233.187775 -41.96 
L 235.494217 -41.96 
L 237.800658 -41.96 
L 240.107099 -41.96 
L 242.41354 -41.96 
L 244.719982 -41.96 
L 247.026423 -41.96 
L 249.332864 -41.96 
L 251.639306 -41.96 
L 253.945747 -41.96 
L 256.252188 -41.96 
L 258.55863 -41.96 
L 260.865071 -41.96 
L 263.171512 -41.96 
L 265.477953 -41.96 
L 267.784395 -41.96 
L 270.090836 -41.96 
L 272.397277 -41.96 
L 274.703719 -41.96 
L 277.01016 -41.96 
L 279.316601 -41.96 
L 281.623042 -41.96 
L 283.929484 -41.96 
L 286.235925 -41.96 
L 288.542366 -41.96 
L 290.848808 -41.96 
L 293.155249 -41.96 
L 295.46169 -41.96 
L 297.768132 -41.96 
L 300.074573 -41.96 
L 302.381014 -41.96 
L 304.687455 -41.96 
L 306.993897 -41.96 
L 309.300338 -41.96 
L 311.606779 -41.96 
L 313.913221 -41.96 
L 316.219662 -41.96 
L 318.526103 -41.96 
L 320.832545 -41.96 
L 323.138986 -41.96 
L 325.445427 -41.96 
L 327.751868 -41.96 
L 330.05831 -41.96 
L 332.364751 -41.96 
L 334.671192 -41.96 
L 336.977634 -41.96 
L 339.284075 -41.96 
L 341.590516 -41.96 
L 343.896958 -41.96 
L 346.203399 -41.96 
L 348.50984 -41.96 
L 350.816281 -41.96 
L 353.122723 -41.96 
L 355.429164 -41.96 
L 357.735605 -41.96 
L 360.042047 -41.96 
L 362.348488 -41.96 
L 364.654929 -41.96 
L 366.96137 -41.96 
L 369.267812 -41.96 
L 371.574253 -41.96 
L 373.880694 -41.96 
L 376.187136 -41.96 
L 378.493577 -41.96 
L 380.800018 -41.96 
L 383.10646 -41.96 
L 385.412901 -41.96 
L 387.719342 -41.96 
L 390.025783 -41.96 
L 392.332225 -41.96 
L 394.638666 -41.96 
L 396.945107 -41.96 
L 399.251549 -41.96 
L 401.55799 -41.96 
L 403.864431 -41.96 
L 406.170873 -41.96 
L 408.477314 -41.96 
L 410.783755 -41.96 
L 413.090196 -41.96 
L 415.396638 -41.96 
L 417.703079 -41.96 
L 420.00952 -41.96 
L 422.315962 -41.96 
L 424.622403 -41.96 
L 426.928844 -41.96 
L 429.235286 -41.96 
L 431.541727 -41.96 
L 433.848168 -41.96 
L 436.154609 -41.96 
L 438.461051 -41.96 
L 440.767492 -41.96 
L 443.073933 -41.96 
L 445.380375 -41.96 
L 447.686816 -41.96 
L 449.993257 -41.96 
L 452.299698 -41.96 
L 454.60614 -41.96 
L 456.912581 -41.96 
L 459.219022 -41.96 
L 461.525464 -41.96 
L 463.831905 -41.96 
L 466.138346 -41.96 
L 468.444788 -41.96 
L 470.751229 -41.96 
L 473.05767 -41.96 
L 475.364111 -41.96 
L 477.670553 -41.96 
L 479.976994 -41.96 
L 482.283435 -41.96 
L 484.589877 -41.96 
L 486.896318 -41.96 
L 489.202759 -41.96 
L 491.509201 -41.96 
L 493.815642 -41.96 
L 496.122083 -41.96 
L 498.428524 -41.96 
L 500.734966 -41.96 
L 503.041407 -41.96 
L 505.347848 -41.96 
L 507.65429 -41.96 
L 509.960731 -41.96 
L 512.267172 -41.96 
L 514.573614 -41.96 
L 516.880055 -41.96 
L 519.186496 -41.96 
L 521.492937 -41.96 
L 523.799379 -41.96 
L 526.10582 -41.96 
L 528.412261 -41.96 
L 530.718703 -41.96 
L 533.025144 -41.96 
L 535.331585 -41.96 
L 537.638026 -41.96 
L 539.944468 -41.96 
L 542.250909 -41.96 
L 542.250909 -45.280319 
L 542.250909 -45.280319 
L 539.944468 -45.891655 
L 537.638026 -46.600722 
L 535.331585 -47.420221 
L 533.025144 -48.363974 
L 530.718703 -49.446933 
L 528.412261 -50.68516 
L 526.10582 -52.095807 
L 523.799379 -53.697048 
L 521.492937 -55.508008 
L 519.186496 -57.548642 
L 516.880055 -59.839601 
L 514.573614 -62.402051 
L 512.267172 -65.257464 
L 509.960731 -68.427378 
L 507.65429 -71.933112 
L 505.347848 -75.795458 
L 503.041407 -80.034332 
L 500.734966 -84.668403 
L 498.428524 -89.714694 
L 496.122083 -95.188164 
L 493.815642 -101.101276 
L 491.509201 -107.463562 
L 489.202759 -114.281184 
L 486.896318 -121.556512 
L 484.589877 -129.287726 
L 482.283435 -137.468441 
L 479.976994 -146.087384 
L 477.670553 -155.128117 
L 475.364111 -164.568835 
L 473.05767 -174.382224 
L 470.751229 -184.535418 
L 468.444788 -194.990038 
L 466.138346 -205.702328 
L 463.831905 -216.623403 
L 461.525464 -227.699592 
L 459.219022 -238.87289 
L 456.912581 -250.081516 
L 454.60614 -261.260563 
L 452.299698 -272.342739 
L 449.993257 -283.259191 
L 447.686816 -293.94039 
L 445.380375 -304.317071 
L 443.073933 -314.321207 
L 440.767492 -323.886993 
L 438.461051 -332.95183 
L 436.154609 -341.457282 
L 433.848168 -349.349983 
L 431.541727 -356.582479 
L 429.235286 -363.113982 
L 426.928844 -368.911017 
L 424.622403 -373.947946 
L 422.315962 -378.207365 
L 420.00952 -381.680342 
L 417.703079 -384.366514 
L 415.396638 -386.274023 
L 413.090196 -387.419293 
L 410.783755 -387.826667 
L 408.477314 -387.527884 
L 406.170873 -386.56144 
L 403.864431 -384.971824 
L 401.55799 -382.808657 
L 399.251549 -380.125752 
L 396.945107 -376.980119 
L 394.638666 -373.430937 
L 392.332225 -369.538515 
L 390.025783 -365.363273 
L 387.719342 -360.964749 
L 385.412901 -356.400683 
L 383.10646 -351.726161 
L 380.800018 -346.992869 
L 378.493577 -342.248446 
L 376.187136 -337.535963 
L 373.880694 -332.893526 
L 371.574253 -328.354011 
L 369.267812 -323.944925 
L 366.96137 -319.688394 
L 364.654929 -315.60127 
L 362.348488 -311.695347 
L 360.042047 -307.977668 
L 357.735605 -304.450914 
L 355.429164 -301.113856 
L 353.122723 -297.96186 
L 350.816281 -294.987409 
L 348.50984 -292.180646 
L 346.203399 -289.529909 
L 343.896958 -287.022244 
L 341.590516 -284.643891 
L 339.284075 -282.380716 
L 336.977634 -280.218597 
L 334.671192 -278.143742 
L 332.364751 -276.142953 
L 330.05831 -274.203819 
L 327.751868 -272.314839 
L 325.445427 -270.4655 
L 323.138986 -268.646286 
L 320.832545 -266.848647 
L 318.526103 -265.064928 
L 316.219662 -263.288264 
L 313.913221 -261.512466 
L 311.606779 -259.731881 
L 309.300338 -257.941267 
L 306.993897 -256.135665 
L 304.687455 -254.310291 
L 302.381014 -252.460447 
L 300.074573 -250.581459 
L 297.768132 -248.668647 
L 295.46169 -246.717313 
L 293.155249 -244.722775 
L 290.848808 -242.680414 
L 288.542366 -240.585748 
L 286.235925 -238.434531 
L 283.929484 -236.222858 
L 281.623042 -233.94728 
L 279.316601 -231.604916 
L 277.01016 -229.193567 
L 274.703719 -226.711808 
L 272.397277 -224.159068 
L 270.090836 -221.535689 
L 267.784395 -218.84295 
L 265.477953 -216.083077 
L 263.171512 -213.259205 
L 260.865071 -210.375327 
L 258.55863 -207.436206 
L 256.252188 -204.447263 
L 253.945747 -201.414441 
L 251.639306 -198.344058 
L 249.332864 -195.242644 
L 247.026423 -192.116772 
L 244.719982 -188.97289 
L 242.41354 -185.817159 
L 240.107099 -182.655307 
L 237.800658 -179.492494 
L 235.494217 -176.333203 
L 233.187775 -173.181157 
L 230.881334 -170.03926 
L 228.574893 -166.909578 
L 226.268451 -163.793336 
L 223.96201 -160.690962 
L 221.655569 -157.602141 
L 219.349127 -154.525914 
L 217.042686 -151.46078 
L 214.736245 -148.404832 
L 212.429804 -145.355896 
L 210.123362 -142.311681 
L 207.816921 -139.269932 
L 205.51048 -136.228582 
L 203.204038 -133.185891 
L 200.897597 -130.140581 
L 198.591156 -127.091947 
L 196.284714 -124.039952 
L 193.978273 -120.985303 
L 191.671832 -117.929495 
L 189.365391 -114.874838 
L 187.058949 -111.824452 
L 184.752508 -108.782247 
L 182.446067 -105.752868 
L 180.139625 -102.741627 
L 177.833184 -99.754418 
L 175.526743 -96.797609 
L 173.220302 -93.87793 
L 170.91386 -91.002348 
L 168.607419 -88.177942 
L 166.300978 -85.411771 
L 163.994536 -82.710749 
L 161.688095 -80.081526 
L 159.381654 -77.530373 
L 157.075212 -75.063086 
L 154.768771 -72.684893 
L 152.46233 -70.400384 
L 150.155889 -68.21345 
L 147.849447 -66.127245 
L 145.543006 -64.144155 
L 143.236565 -62.265794 
L 140.930123 -60.493001 
L 138.623682 -58.825865 
L 136.317241 -57.263751 
L 134.010799 -55.805344 
L 131.704358 -54.448698 
L 129.397917 -53.191297 
L 127.091476 -52.030114 
L 124.785034 -50.961682 
L 122.478593 -49.982161 
L 120.172152 -49.087409 
L 117.86571 -48.273052 
L 115.559269 -47.534546 
L 113.252828 -46.867245 
L 110.946386 -46.266455 
L 108.639945 -45.727492 
L 106.333504 -45.245729 
L 104.027063 -44.816637 
L 101.720621 -44.435822 
L 99.41418 -44.099057 
L 97.107739 -43.802304 
L 94.801297 -43.541737 
L 92.494856 -43.313754 
L 90.188415 -43.114982 
L 87.881974 -42.94229 
L 85.575532 -42.792782 
L 83.269091 -42.663799 
z
" style="stroke: #87ceeb"/>
    </defs>
    <g clip-path="url(#pbf3a694648)">
     <use xlink:href="#m72967240a1" x="0" y="432" style="fill: #87ceeb; fill-opacity: 0.25; stroke: #87ceeb"/>
    </g>
   </g>
   <g id="matplotlib.axis_1">
    <g id="xtick_1">
     <g id="line2d_1">
      <defs>
       <path id="m74d065cc5a" d="M 0 0 
L 0 3.5 
" style="stroke: #000000; stroke-width: 0.8"/>
      </defs>
      <g>
       <use xlink:href="#m74d065cc5a" x="130.378913" y="390.04" style="stroke: #000000; stroke-width: 0.8"/>
      </g>
     </g>
     <g id="text_1">
      <!-- 280 -->
      <g transform="translate(120.835163 404.638438) scale(0.1 -0.1)">
       <defs>
        <path id="DejaVuSans-32" d="M 1228 531 
L 3431 531 
L 3431 0 
L 469 0 
L 469 531 
Q 828 903 1448 1529 
Q 2069 2156 2228 2338 
Q 2531 2678 2651 2914 
Q 2772 3150 2772 3378 
Q 2772 3750 2511 3984 
Q 2250 4219 1831 4219 
Q 1534 4219 1204 4116 
Q 875 4013 500 3803 
L 500 4441 
Q 881 4594 1212 4672 
Q 1544 4750 1819 4750 
Q 2544 4750 2975 4387 
Q 3406 4025 3406 3419 
Q 3406 3131 3298 2873 
Q 3191 2616 2906 2266 
Q 2828 2175 2409 1742 
Q 1991 1309 1228 531 
z
" transform="scale(0.015625)"/>
        <path id="DejaVuSans-38" d="M 2034 2216 
Q 1584 2216 1326 1975 
Q 1069 1734 1069 1313 
Q 1069 891 1326 650 
Q 1584 409 2034 409 
Q 2484 409 2743 651 
Q 3003 894 3003 1313 
Q 3003 1734 2745 1975 
Q 2488 2216 2034 2216 
z
M 1403 2484 
Q 997 2584 770 2862 
Q 544 3141 544 3541 
Q 544 4100 942 4425 
Q 1341 4750 2034 4750 
Q 2731 4750 3128 4425 
Q 3525 4100 3525 3541 
Q 3525 3141 3298 2862 
Q 3072 2584 2669 2484 
Q 3125 2378 3379 2068 
Q 3634 1759 3634 1313 
Q 3634 634 3220 271 
Q 2806 -91 2034 -91 
Q 1263 -91 848 271 
Q 434 634 434 1313 
Q 434 1759 690 2068 
Q 947 2378 1403 2484 
z
M 1172 3481 
Q 1172 3119 1398 2916 
Q 1625 2713 2034 2713 
Q 2441 2713 2670 2916 
Q 2900 3119 2900 3481 
Q 2900 3844 2670 4047 
Q 2441 4250 2034 4250 
Q 1625 4250 1398 4047 
Q 1172 3844 1172 3481 
z
" transform="scale(0.015625)"/>
        <path id="DejaVuSans-30" d="M 2034 4250 
Q 1547 4250 1301 3770 
Q 1056 3291 1056 2328 
Q 1056 1369 1301 889 
Q 1547 409 2034 409 
Q 2525 409 2770 889 
Q 3016 1369 3016 2328 
Q 3016 3291 2770 3770 
Q 2525 4250 2034 4250 
z
M 2034 4750 
Q 2819 4750 3233 4129 
Q 3647 3509 3647 2328 
Q 3647 1150 3233 529 
Q 2819 -91 2034 -91 
Q 1250 -91 836 529 
Q 422 1150 422 2328 
Q 422 3509 836 4129 
Q 1250 4750 2034 4750 
z
" transform="scale(0.015625)"/>
       </defs>
       <use xlink:href="#DejaVuSans-32"/>
       <use xlink:href="#DejaVuSans-38" x="63.623047"/>
       <use xlink:href="#DejaVuSans-30" x="127.246094"/>
      </g>
     </g>
    </g>
    <g id="xtick_2">
     <g id="line2d_2">
      <g>
       <use xlink:href="#m74d065cc5a" x="232.840198" y="390.04" style="stroke: #000000; stroke-width: 0.8"/>
      </g>
     </g>
     <g id="text_2">
      <!-- 300 -->
      <g transform="translate(223.296448 404.638438) scale(0.1 -0.1)">
       <defs>
        <path id="DejaVuSans-33" d="M 2597 2516 
Q 3050 2419 3304 2112 
Q 3559 1806 3559 1356 
Q 3559 666 3084 287 
Q 2609 -91 1734 -91 
Q 1441 -91 1130 -33 
Q 819 25 488 141 
L 488 750 
Q 750 597 1062 519 
Q 1375 441 1716 441 
Q 2309 441 2620 675 
Q 2931 909 2931 1356 
Q 2931 1769 2642 2001 
Q 2353 2234 1838 2234 
L 1294 2234 
L 1294 2753 
L 1863 2753 
Q 2328 2753 2575 2939 
Q 2822 3125 2822 3475 
Q 2822 3834 2567 4026 
Q 2313 4219 1838 4219 
Q 1578 4219 1281 4162 
Q 984 4106 628 3988 
L 628 4550 
Q 988 4650 1302 4700 
Q 1616 4750 1894 4750 
Q 2613 4750 3031 4423 
Q 3450 4097 3450 3541 
Q 3450 3153 3228 2886 
Q 3006 2619 2597 2516 
z
" transform="scale(0.015625)"/>
       </defs>
       <use xlink:href="#DejaVuSans-33"/>
       <use xlink:href="#DejaVuSans-30" x="63.623047"/>
       <use xlink:href="#DejaVuSans-30" x="127.246094"/>
      </g>
     </g>
    </g>
    <g id="xtick_3">
     <g id="line2d_3">
      <g>
       <use xlink:href="#m74d065cc5a" x="335.301483" y="390.04" style="stroke: #000000; stroke-width: 0.8"/>
      </g>
     </g>
     <g id="text_3">
      <!-- 320 -->
      <g transform="translate(325.757733 404.638438) scale(0.1 -0.1)">
       <use xlink:href="#DejaVuSans-33"/>
       <use xlink:href="#DejaVuSans-32" x="63.623047"/>
       <use xlink:href="#DejaVuSans-30" x="127.246094"/>
      </g>
     </g>
    </g>
    <g id="xtick_4">
     <g id="line2d_4">
      <g>
       <use xlink:href="#m74d065cc5a" x="437.762767" y="390.04" style="stroke: #000000; stroke-width: 0.8"/>
      </g>
     </g>
     <g id="text_4">
      <!-- 340 -->
      <g transform="translate(428.219017 404.638438) scale(0.1 -0.1)">
       <defs>
        <path id="DejaVuSans-34" d="M 2419 4116 
L 825 1625 
L 2419 1625 
L 2419 4116 
z
M 2253 4666 
L 3047 4666 
L 3047 1625 
L 3713 1625 
L 3713 1100 
L 3047 1100 
L 3047 0 
L 2419 0 
L 2419 1100 
L 313 1100 
L 313 1709 
L 2253 4666 
z
" transform="scale(0.015625)"/>
       </defs>
       <use xlink:href="#DejaVuSans-33"/>
       <use xlink:href="#DejaVuSans-34" x="63.623047"/>
       <use xlink:href="#DejaVuSans-30" x="127.246094"/>
      </g>
     </g>
    </g>
    <g id="xtick_5">
     <g id="line2d_5">
      <g>
       <use xlink:href="#m74d065cc5a" x="540.224052" y="390.04" style="stroke: #000000; stroke-width: 0.8"/>
      </g>
     </g>
     <g id="text_5">
      <!-- 360 -->
      <g transform="translate(530.680302 404.638438) scale(0.1 -0.1)">
       <defs>
        <path id="DejaVuSans-36" d="M 2113 2584 
Q 1688 2584 1439 2293 
Q 1191 2003 1191 1497 
Q 1191 994 1439 701 
Q 1688 409 2113 409 
Q 2538 409 2786 701 
Q 3034 994 3034 1497 
Q 3034 2003 2786 2293 
Q 2538 2584 2113 2584 
z
M 3366 4563 
L 3366 3988 
Q 3128 4100 2886 4159 
Q 2644 4219 2406 4219 
Q 1781 4219 1451 3797 
Q 1122 3375 1075 2522 
Q 1259 2794 1537 2939 
Q 1816 3084 2150 3084 
Q 2853 3084 3261 2657 
Q 3669 2231 3669 1497 
Q 3669 778 3244 343 
Q 2819 -91 2113 -91 
Q 1303 -91 875 529 
Q 447 1150 447 2328 
Q 447 3434 972 4092 
Q 1497 4750 2381 4750 
Q 2619 4750 2861 4703 
Q 3103 4656 3366 4563 
z
" transform="scale(0.015625)"/>
       </defs>
       <use xlink:href="#DejaVuSans-33"/>
       <use xlink:href="#DejaVuSans-36" x="63.623047"/>
       <use xlink:href="#DejaVuSans-30" x="127.246094"/>
      </g>
     </g>
    </g>
    <g id="text_6">
     <!-- 52W L  -->
     <g transform="translate(295.489688 418.316562) scale(0.1 -0.1)">
      <defs>
       <path id="DejaVuSans-35" d="M 691 4666 
L 3169 4666 
L 3169 4134 
L 1269 4134 
L 1269 2991 
Q 1406 3038 1543 3061 
Q 1681 3084 1819 3084 
Q 2600 3084 3056 2656 
Q 3513 2228 3513 1497 
Q 3513 744 3044 326 
Q 2575 -91 1722 -91 
Q 1428 -91 1123 -41 
Q 819 9 494 109 
L 494 744 
Q 775 591 1075 516 
Q 1375 441 1709 441 
Q 2250 441 2565 725 
Q 2881 1009 2881 1497 
Q 2881 1984 2565 2268 
Q 2250 2553 1709 2553 
Q 1456 2553 1204 2497 
Q 953 2441 691 2322 
L 691 4666 
z
" transform="scale(0.015625)"/>
       <path id="DejaVuSans-57" d="M 213 4666 
L 850 4666 
L 1831 722 
L 2809 4666 
L 3519 4666 
L 4500 722 
L 5478 4666 
L 6119 4666 
L 4947 0 
L 4153 0 
L 3169 4050 
L 2175 0 
L 1381 0 
L 213 4666 
z
" transform="scale(0.015625)"/>
       <path id="DejaVuSans-20" transform="scale(0.015625)"/>
       <path id="DejaVuSans-4c" d="M 628 4666 
L 1259 4666 
L 1259 531 
L 3531 531 
L 3531 0 
L 628 0 
L 628 4666 
z
" transform="scale(0.015625)"/>
      </defs>
      <use xlink:href="#DejaVuSans-35"/>
      <use xlink:href="#DejaVuSans-32" x="63.623047"/>
      <use xlink:href="#DejaVuSans-57" x="127.246094"/>
      <use xlink:href="#DejaVuSans-20" x="226.123047"/>
      <use xlink:href="#DejaVuSans-4c" x="257.910156"/>
      <use xlink:href="#DejaVuSans-20" x="313.623047"/>
     </g>
    </g>
   </g>
   <g id="matplotlib.axis_2">
    <g id="ytick_1">
     <g id="line2d_6">
      <defs>
       <path id="mbfffcb1dae" d="M 0 0 
L -3.5 0 
" style="stroke: #000000; stroke-width: 0.8"/>
      </defs>
      <g>
       <use xlink:href="#mbfffcb1dae" x="60.32" y="390.04" style="stroke: #000000; stroke-width: 0.8"/>
      </g>
     </g>
     <g id="text_7">
      <!-- 0.000 -->
      <g transform="translate(24.691875 393.839219) scale(0.1 -0.1)">
       <defs>
        <path id="DejaVuSans-2e" d="M 684 794 
L 1344 794 
L 1344 0 
L 684 0 
L 684 794 
z
" transform="scale(0.015625)"/>
       </defs>
       <use xlink:href="#DejaVuSans-30"/>
       <use xlink:href="#DejaVuSans-2e" x="63.623047"/>
       <use xlink:href="#DejaVuSans-30" x="95.410156"/>
       <use xlink:href="#DejaVuSans-30" x="159.033203"/>
       <use xlink:href="#DejaVuSans-30" x="222.65625"/>
      </g>
     </g>
    </g>
    <g id="ytick_2">
     <g id="line2d_7">
      <g>
       <use xlink:href="#mbfffcb1dae" x="60.32" y="323.838786" style="stroke: #000000; stroke-width: 0.8"/>
      </g>
     </g>
     <g id="text_8">
      <!-- 0.005 -->
      <g transform="translate(24.691875 327.638005) scale(0.1 -0.1)">
       <use xlink:href="#DejaVuSans-30"/>
       <use xlink:href="#DejaVuSans-2e" x="63.623047"/>
       <use xlink:href="#DejaVuSans-30" x="95.410156"/>
       <use xlink:href="#DejaVuSans-30" x="159.033203"/>
       <use xlink:href="#DejaVuSans-35" x="222.65625"/>
      </g>
     </g>
    </g>
    <g id="ytick_3">
     <g id="line2d_8">
      <g>
       <use xlink:href="#mbfffcb1dae" x="60.32" y="257.637572" style="stroke: #000000; stroke-width: 0.8"/>
      </g>
     </g>
     <g id="text_9">
      <!-- 0.010 -->
      <g transform="translate(24.691875 261.43679) scale(0.1 -0.1)">
       <defs>
        <path id="DejaVuSans-31" d="M 794 531 
L 1825 531 
L 1825 4091 
L 703 3866 
L 703 4441 
L 1819 4666 
L 2450 4666 
L 2450 531 
L 3481 531 
L 3481 0 
L 794 0 
L 794 531 
z
" transform="scale(0.015625)"/>
       </defs>
       <use xlink:href="#DejaVuSans-30"/>
       <use xlink:href="#DejaVuSans-2e" x="63.623047"/>
       <use xlink:href="#DejaVuSans-30" x="95.410156"/>
       <use xlink:href="#DejaVuSans-31" x="159.033203"/>
       <use xlink:href="#DejaVuSans-30" x="222.65625"/>
      </g>
     </g>
    </g>
    <g id="ytick_4">
     <g id="line2d_9">
      <g>
       <use xlink:href="#mbfffcb1dae" x="60.32" y="191.436358" style="stroke: #000000; stroke-width: 0.8"/>
      </g>
     </g>
     <g id="text_10">
      <!-- 0.015 -->
      <g transform="translate(24.691875 195.235576) scale(0.1 -0.1)">
       <use xlink:href="#DejaVuSans-30"/>
       <use xlink:href="#DejaVuSans-2e" x="63.623047"/>
       <use xlink:href="#DejaVuSans-30" x="95.410156"/>
       <use xlink:href="#DejaVuSans-31" x="159.033203"/>
       <use xlink:href="#DejaVuSans-35" x="222.65625"/>
      </g>
     </g>
    </g>
    <g id="ytick_5">
     <g id="line2d_10">
      <g>
       <use xlink:href="#mbfffcb1dae" x="60.32" y="125.235143" style="stroke: #000000; stroke-width: 0.8"/>
      </g>
     </g>
     <g id="text_11">
      <!-- 0.020 -->
      <g transform="translate(24.691875 129.034362) scale(0.1 -0.1)">
       <use xlink:href="#DejaVuSans-30"/>
       <use xlink:href="#DejaVuSans-2e" x="63.623047"/>
       <use xlink:href="#DejaVuSans-30" x="95.410156"/>
       <use xlink:href="#DejaVuSans-32" x="159.033203"/>
       <use xlink:href="#DejaVuSans-30" x="222.65625"/>
      </g>
     </g>
    </g>
    <g id="ytick_6">
     <g id="line2d_11">
      <g>
       <use xlink:href="#mbfffcb1dae" x="60.32" y="59.033929" style="stroke: #000000; stroke-width: 0.8"/>
      </g>
     </g>
     <g id="text_12">
      <!-- 0.025 -->
      <g transform="translate(24.691875 62.833148) scale(0.1 -0.1)">
       <use xlink:href="#DejaVuSans-30"/>
       <use xlink:href="#DejaVuSans-2e" x="63.623047"/>
       <use xlink:href="#DejaVuSans-30" x="95.410156"/>
       <use xlink:href="#DejaVuSans-32" x="159.033203"/>
       <use xlink:href="#DejaVuSans-35" x="222.65625"/>
      </g>
     </g>
    </g>
    <g id="text_13">
     <!-- Density -->
     <g transform="translate(18.612188 227.468594) rotate(-90) scale(0.1 -0.1)">
      <defs>
       <path id="DejaVuSans-44" d="M 1259 4147 
L 1259 519 
L 2022 519 
Q 2988 519 3436 956 
Q 3884 1394 3884 2338 
Q 3884 3275 3436 3711 
Q 2988 4147 2022 4147 
L 1259 4147 
z
M 628 4666 
L 1925 4666 
Q 3281 4666 3915 4102 
Q 4550 3538 4550 2338 
Q 4550 1131 3912 565 
Q 3275 0 1925 0 
L 628 0 
L 628 4666 
z
" transform="scale(0.015625)"/>
       <path id="DejaVuSans-65" d="M 3597 1894 
L 3597 1613 
L 953 1613 
Q 991 1019 1311 708 
Q 1631 397 2203 397 
Q 2534 397 2845 478 
Q 3156 559 3463 722 
L 3463 178 
Q 3153 47 2828 -22 
Q 2503 -91 2169 -91 
Q 1331 -91 842 396 
Q 353 884 353 1716 
Q 353 2575 817 3079 
Q 1281 3584 2069 3584 
Q 2775 3584 3186 3129 
Q 3597 2675 3597 1894 
z
M 3022 2063 
Q 3016 2534 2758 2815 
Q 2500 3097 2075 3097 
Q 1594 3097 1305 2825 
Q 1016 2553 972 2059 
L 3022 2063 
z
" transform="scale(0.015625)"/>
       <path id="DejaVuSans-6e" d="M 3513 2113 
L 3513 0 
L 2938 0 
L 2938 2094 
Q 2938 2591 2744 2837 
Q 2550 3084 2163 3084 
Q 1697 3084 1428 2787 
Q 1159 2491 1159 1978 
L 1159 0 
L 581 0 
L 581 3500 
L 1159 3500 
L 1159 2956 
Q 1366 3272 1645 3428 
Q 1925 3584 2291 3584 
Q 2894 3584 3203 3211 
Q 3513 2838 3513 2113 
z
" transform="scale(0.015625)"/>
       <path id="DejaVuSans-73" d="M 2834 3397 
L 2834 2853 
Q 2591 2978 2328 3040 
Q 2066 3103 1784 3103 
Q 1356 3103 1142 2972 
Q 928 2841 928 2578 
Q 928 2378 1081 2264 
Q 1234 2150 1697 2047 
L 1894 2003 
Q 2506 1872 2764 1633 
Q 3022 1394 3022 966 
Q 3022 478 2636 193 
Q 2250 -91 1575 -91 
Q 1294 -91 989 -36 
Q 684 19 347 128 
L 347 722 
Q 666 556 975 473 
Q 1284 391 1588 391 
Q 1994 391 2212 530 
Q 2431 669 2431 922 
Q 2431 1156 2273 1281 
Q 2116 1406 1581 1522 
L 1381 1569 
Q 847 1681 609 1914 
Q 372 2147 372 2553 
Q 372 3047 722 3315 
Q 1072 3584 1716 3584 
Q 2034 3584 2315 3537 
Q 2597 3491 2834 3397 
z
" transform="scale(0.015625)"/>
       <path id="DejaVuSans-69" d="M 603 3500 
L 1178 3500 
L 1178 0 
L 603 0 
L 603 3500 
z
M 603 4863 
L 1178 4863 
L 1178 4134 
L 603 4134 
L 603 4863 
z
" transform="scale(0.015625)"/>
       <path id="DejaVuSans-74" d="M 1172 4494 
L 1172 3500 
L 2356 3500 
L 2356 3053 
L 1172 3053 
L 1172 1153 
Q 1172 725 1289 603 
Q 1406 481 1766 481 
L 2356 481 
L 2356 0 
L 1766 0 
Q 1100 0 847 248 
Q 594 497 594 1153 
L 594 3053 
L 172 3053 
L 172 3500 
L 594 3500 
L 594 4494 
L 1172 4494 
z
" transform="scale(0.015625)"/>
       <path id="DejaVuSans-79" d="M 2059 -325 
Q 1816 -950 1584 -1140 
Q 1353 -1331 966 -1331 
L 506 -1331 
L 506 -850 
L 844 -850 
Q 1081 -850 1212 -737 
Q 1344 -625 1503 -206 
L 1606 56 
L 191 3500 
L 800 3500 
L 1894 763 
L 2988 3500 
L 3597 3500 
L 2059 -325 
z
" transform="scale(0.015625)"/>
      </defs>
      <use xlink:href="#DejaVuSans-44"/>
      <use xlink:href="#DejaVuSans-65" x="77.001953"/>
      <use xlink:href="#DejaVuSans-6e" x="138.525391"/>
      <use xlink:href="#DejaVuSans-73" x="201.904297"/>
      <use xlink:href="#DejaVuSans-69" x="254.003906"/>
      <use xlink:href="#DejaVuSans-74" x="281.787109"/>
      <use xlink:href="#DejaVuSans-79" x="320.996094"/>
     </g>
    </g>
   </g>
   <g id="patch_3">
    <path d="M 60.32 390.04 
L 60.32 26.88 
" style="fill: none; stroke: #000000; stroke-width: 0.8; stroke-linejoin: miter; stroke-linecap: square"/>
   </g>
   <g id="patch_4">
    <path d="M 565.2 390.04 
L 565.2 26.88 
" style="fill: none; stroke: #000000; stroke-width: 0.8; stroke-linejoin: miter; stroke-linecap: square"/>
   </g>
   <g id="patch_5">
    <path d="M 60.32 390.04 
L 565.2 390.04 
" style="fill: none; stroke: #000000; stroke-width: 0.8; stroke-linejoin: miter; stroke-linecap: square"/>
   </g>
   <g id="patch_6">
    <path d="M 60.32 26.88 
L 565.2 26.88 
" style="fill: none; stroke: #000000; stroke-width: 0.8; stroke-linejoin: miter; stroke-linecap: square"/>
   </g>
   <g id="text_14">
    <!-- 52W L  - KDE Plot -->
    <g transform="translate(260.49625 20.88) scale(0.12 -0.12)">
     <defs>
      <path id="DejaVuSans-2d" d="M 313 2009 
L 1997 2009 
L 1997 1497 
L 313 1497 
L 313 2009 
z
" transform="scale(0.015625)"/>
      <path id="DejaVuSans-4b" d="M 628 4666 
L 1259 4666 
L 1259 2694 
L 3353 4666 
L 4166 4666 
L 1850 2491 
L 4331 0 
L 3500 0 
L 1259 2247 
L 1259 0 
L 628 0 
L 628 4666 
z
" transform="scale(0.015625)"/>
      <path id="DejaVuSans-45" d="M 628 4666 
L 3578 4666 
L 3578 4134 
L 1259 4134 
L 1259 2753 
L 3481 2753 
L 3481 2222 
L 1259 2222 
L 1259 531 
L 3634 531 
L 3634 0 
L 628 0 
L 628 4666 
z
" transform="scale(0.015625)"/>
      <path id="DejaVuSans-50" d="M 1259 4147 
L 1259 2394 
L 2053 2394 
Q 2494 2394 2734 2622 
Q 2975 2850 2975 3272 
Q 2975 3691 2734 3919 
Q 2494 4147 2053 4147 
L 1259 4147 
z
M 628 4666 
L 2053 4666 
Q 2838 4666 3239 4311 
Q 3641 3956 3641 3272 
Q 3641 2581 3239 2228 
Q 2838 1875 2053 1875 
L 1259 1875 
L 1259 0 
L 628 0 
L 628 4666 
z
" transform="scale(0.015625)"/>
      <path id="DejaVuSans-6c" d="M 603 4863 
L 1178 4863 
L 1178 0 
L 603 0 
L 603 4863 
z
" transform="scale(0.015625)"/>
      <path id="DejaVuSans-6f" d="M 1959 3097 
Q 1497 3097 1228 2736 
Q 959 2375 959 1747 
Q 959 1119 1226 758 
Q 1494 397 1959 397 
Q 2419 397 2687 759 
Q 2956 1122 2956 1747 
Q 2956 2369 2687 2733 
Q 2419 3097 1959 3097 
z
M 1959 3584 
Q 2709 3584 3137 3096 
Q 3566 2609 3566 1747 
Q 3566 888 3137 398 
Q 2709 -91 1959 -91 
Q 1206 -91 779 398 
Q 353 888 353 1747 
Q 353 2609 779 3096 
Q 1206 3584 1959 3584 
z
" transform="scale(0.015625)"/>
     </defs>
     <use xlink:href="#DejaVuSans-35"/>
     <use xlink:href="#DejaVuSans-32" x="63.623047"/>
     <use xlink:href="#DejaVuSans-57" x="127.246094"/>
     <use xlink:href="#DejaVuSans-20" x="226.123047"/>
     <use xlink:href="#DejaVuSans-4c" x="257.910156"/>
     <use xlink:href="#DejaVuSans-20" x="313.623047"/>
     <use xlink:href="#DejaVuSans-20" x="345.410156"/>
     <use xlink:href="#DejaVuSans-2d" x="377.197266"/>
     <use xlink:href="#DejaVuSans-20" x="413.28125"/>
     <use xlink:href="#DejaVuSans-4b" x="445.068359"/>
     <use xlink:href="#DejaVuSans-44" x="510.644531"/>
     <use xlink:href="#DejaVuSans-45" x="587.646484"/>
     <use xlink:href="#DejaVuSans-20" x="650.830078"/>
     <use xlink:href="#DejaVuSans-50" x="682.617188"/>
     <use xlink:href="#DejaVuSans-6c" x="742.919922"/>
     <use xlink:href="#DejaVuSans-6f" x="770.703125"/>
     <use xlink:href="#DejaVuSans-74" x="831.884766"/>
    </g>
   </g>
  </g>
 </g>
 <defs>
  <clipPath id="pbf3a694648">
   <rect x="60.32" y="26.88" width="504.88" height="363.16"/>
  </clipPath>
 </defs>
</svg>
