<?xml version="1.0" encoding="utf-8" standalone="no"?>
<!DOCTYPE svg PUBLIC "-//W3C//DTD SVG 1.1//EN"
  "http://www.w3.org/Graphics/SVG/1.1/DTD/svg11.dtd">
<svg xmlns:xlink="http://www.w3.org/1999/xlink" width="576pt" height="432pt" viewBox="0 0 576 432" xmlns="http://www.w3.org/2000/svg" version="1.1">
 <metadata>
  <rdf:RDF xmlns:dc="http://purl.org/dc/elements/1.1/" xmlns:cc="http://creativecommons.org/ns#" xmlns:rdf="http://www.w3.org/1999/02/22-rdf-syntax-ns#">
   <cc:Work>
    <dc:type rdf:resource="http://purl.org/dc/dcmitype/StillImage"/>
    <dc:date>1980-01-01T00:00:00+00:00</dc:date>
    <dc:format>image/svg+xml</dc:format>
    <dc:creator>
     <cc:Agent>
      <dc:title>Matplotlib v3.7.2, https://matplotlib.org/</dc:title>
     </cc:Agent>
    </dc:creator>
   </cc:Work>
  </rdf:RDF>
 </metadata>
 <defs>
  <style type="text/css">*{stroke-linejoin: round; stroke-linecap: butt}</style>
 </defs>
 <g id="figure_1">
  <g id="patch_1">
   <path d="M 0 432 
L 576 432 
L 576 0 
L 0 0 
z
" style="fill: #ffffff"/>
  </g>
  <g id="axes_1">
   <g id="patch_2">
    <path d="M 14.3 390.04 
L 565.2 390.04 
L 565.2 26.88 
L 14.3 26.88 
z
" style="fill: #ffffff"/>
   </g>
   <g id="PolyCollection_1">
    <defs>
     <path id="mfa8e28b4b7" d="M 39.340909 -219.889484 
L 39.340909 -227.190516 
L 44.399679 -227.933571 
L 49.458448 -228.784394 
L 54.517218 -229.748985 
L 59.575987 -230.831752 
L 64.634757 -232.035196 
L 69.693526 -233.359654 
L 74.752296 -234.803114 
L 79.811065 -236.361149 
L 84.869835 -238.026964 
L 89.928604 -239.791582 
L 94.987374 -241.644157 
L 100.046143 -243.572427 
L 105.104913 -245.563258 
L 110.163682 -247.603274 
L 115.222452 -249.67951 
L 120.281221 -251.780067 
L 125.339991 -253.894682 
L 130.39876 -256.015205 
L 135.45753 -258.135901 
L 140.516299 -260.253568 
L 145.575069 -262.367449 
L 150.633838 -264.478925 
L 155.692608 -266.591026 
L 160.751377 -268.707779 
L 165.810147 -270.833461 
L 170.868916 -272.971821 
L 175.927686 -275.125335 
L 180.986455 -277.294573 
L 186.045225 -279.477746 
L 191.103994 -281.670471 
L 196.162764 -283.865795 
L 201.221534 -286.054467 
L 206.280303 -288.225451 
L 211.339073 -290.366626 
L 216.397842 -292.465605 
L 221.456612 -294.510599 
L 226.515381 -296.491234 
L 231.574151 -298.399249 
L 236.63292 -300.229003 
L 241.69169 -301.977745 
L 246.750459 -303.64564 
L 251.809229 -305.23555 
L 256.867998 -306.752622 
L 261.926768 -308.20375 
L 266.985537 -309.596987 
L 272.044307 -310.941003 
L 277.103076 -312.24468 
L 282.161846 -313.516897 
L 287.220615 -314.766558 
L 292.279385 -316.002868 
L 297.338154 -317.235819 
L 302.396924 -318.476819 
L 307.455693 -319.739365 
L 312.514463 -321.039624 
L 317.573232 -322.396794 
L 322.632002 -323.833118 
L 327.690771 -325.373428 
L 332.749541 -327.044179 
L 337.80831 -328.871916 
L 342.86708 -330.881244 
L 347.925849 -333.09238 
L 352.984619 -335.51845 
L 358.043388 -338.162726 
L 363.102158 -341.01604 
L 368.160927 -344.054624 
L 373.219697 -347.238592 
L 378.278466 -350.511291 
L 383.337236 -353.799661 
L 388.396006 -357.015671 
L 393.454775 -360.058862 
L 398.513545 -362.819884 
L 403.572314 -365.184879 
L 408.631084 -367.040464 
L 413.689853 -368.279025 
L 418.748623 -368.804 
L 423.807392 -368.534812 
L 428.866162 -367.411137 
L 433.924931 -365.396241 
L 438.983701 -362.479166 
L 444.04247 -358.675642 
L 449.10124 -354.027667 
L 454.160009 -348.601813 
L 459.218779 -342.486378 
L 464.277548 -335.787568 
L 469.336318 -328.624982 
L 474.395087 -321.126664 
L 479.453857 -313.424028 
L 484.512626 -305.646924 
L 489.571396 -297.919121 
L 494.630165 -290.354398 
L 499.688935 -283.053401 
L 504.747704 -276.101368 
L 509.806474 -269.566736 
L 514.865243 -263.500628 
L 519.924013 -257.937123 
L 524.982782 -252.894216 
L 530.041552 -248.375318 
L 535.100321 -244.37116 
L 540.159091 -240.861931 
L 540.159091 -206.218069 
L 540.159091 -206.218069 
L 535.100321 -202.70884 
L 530.041552 -198.704682 
L 524.982782 -194.185784 
L 519.924013 -189.142877 
L 514.865243 -183.579372 
L 509.806474 -177.513264 
L 504.747704 -170.978632 
L 499.688935 -164.026599 
L 494.630165 -156.725602 
L 489.571396 -149.160879 
L 484.512626 -141.433076 
L 479.453857 -133.655972 
L 474.395087 -125.953336 
L 469.336318 -118.455018 
L 464.277548 -111.292432 
L 459.218779 -104.593622 
L 454.160009 -98.478187 
L 449.10124 -93.052333 
L 444.04247 -88.404358 
L 438.983701 -84.600834 
L 433.924931 -81.683759 
L 428.866162 -79.668863 
L 423.807392 -78.545188 
L 418.748623 -78.276 
L 413.689853 -78.800975 
L 408.631084 -80.039536 
L 403.572314 -81.895121 
L 398.513545 -84.260116 
L 393.454775 -87.021138 
L 388.396006 -90.064329 
L 383.337236 -93.280339 
L 378.278466 -96.568709 
L 373.219697 -99.841408 
L 368.160927 -103.025376 
L 363.102158 -106.06396 
L 358.043388 -108.917274 
L 352.984619 -111.56155 
L 347.925849 -113.98762 
L 342.86708 -116.198756 
L 337.80831 -118.208084 
L 332.749541 -120.035821 
L 327.690771 -121.706572 
L 322.632002 -123.246882 
L 317.573232 -124.683206 
L 312.514463 -126.040376 
L 307.455693 -127.340635 
L 302.396924 -128.603181 
L 297.338154 -129.844181 
L 292.279385 -131.077132 
L 287.220615 -132.313442 
L 282.161846 -133.563103 
L 277.103076 -134.83532 
L 272.044307 -136.138997 
L 266.985537 -137.483013 
L 261.926768 -138.87625 
L 256.867998 -140.327378 
L 251.809229 -141.84445 
L 246.750459 -143.43436 
L 241.69169 -145.102255 
L 236.63292 -146.850997 
L 231.574151 -148.680751 
L 226.515381 -150.588766 
L 221.456612 -152.569401 
L 216.397842 -154.614395 
L 211.339073 -156.713374 
L 206.280303 -158.854549 
L 201.221534 -161.025533 
L 196.162764 -163.214205 
L 191.103994 -165.409529 
L 186.045225 -167.602254 
L 180.986455 -169.785427 
L 175.927686 -171.954665 
L 170.868916 -174.108179 
L 165.810147 -176.246539 
L 160.751377 -178.372221 
L 155.692608 -180.488974 
L 150.633838 -182.601075 
L 145.575069 -184.712551 
L 140.516299 -186.826432 
L 135.45753 -188.944099 
L 130.39876 -191.064795 
L 125.339991 -193.185318 
L 120.281221 -195.299933 
L 115.222452 -197.40049 
L 110.163682 -199.476726 
L 105.104913 -201.516742 
L 100.046143 -203.507573 
L 94.987374 -205.435843 
L 89.928604 -207.288418 
L 84.869835 -209.053036 
L 79.811065 -210.718851 
L 74.752296 -212.276886 
L 69.693526 -213.720346 
L 64.634757 -215.044804 
L 59.575987 -216.248248 
L 54.517218 -217.331015 
L 49.458448 -218.295606 
L 44.399679 -219.146429 
L 39.340909 -219.889484 
z
" style="stroke: #7a7a7a; stroke-width: 1.5"/>
    </defs>
    <g clip-path="url(#p11f10c5349)">
     <use xlink:href="#mfa8e28b4b7" x="0" y="432" style="fill: #abc9ea; stroke: #7a7a7a; stroke-width: 1.5"/>
    </g>
   </g>
   <g id="matplotlib.axis_1">
    <g id="xtick_1">
     <g id="line2d_1">
      <defs>
       <path id="m83cb207d2c" d="M 0 0 
L 0 3.5 
" style="stroke: #000000; stroke-width: 0.8"/>
      </defs>
      <g>
       <use xlink:href="#m83cb207d2c" x="47.70652" y="390.04" style="stroke: #000000; stroke-width: 0.8"/>
      </g>
     </g>
     <g id="text_1">
      <!-- 280 -->
      <g transform="translate(38.16277 404.638438) scale(0.1 -0.1)">
       <defs>
        <path id="DejaVuSans-32" d="M 1228 531 
L 3431 531 
L 3431 0 
L 469 0 
L 469 531 
Q 828 903 1448 1529 
Q 2069 2156 2228 2338 
Q 2531 2678 2651 2914 
Q 2772 3150 2772 3378 
Q 2772 3750 2511 3984 
Q 2250 4219 1831 4219 
Q 1534 4219 1204 4116 
Q 875 4013 500 3803 
L 500 4441 
Q 881 4594 1212 4672 
Q 1544 4750 1819 4750 
Q 2544 4750 2975 4387 
Q 3406 4025 3406 3419 
Q 3406 3131 3298 2873 
Q 3191 2616 2906 2266 
Q 2828 2175 2409 1742 
Q 1991 1309 1228 531 
z
" transform="scale(0.015625)"/>
        <path id="DejaVuSans-38" d="M 2034 2216 
Q 1584 2216 1326 1975 
Q 1069 1734 1069 1313 
Q 1069 891 1326 650 
Q 1584 409 2034 409 
Q 2484 409 2743 651 
Q 3003 894 3003 1313 
Q 3003 1734 2745 1975 
Q 2488 2216 2034 2216 
z
M 1403 2484 
Q 997 2584 770 2862 
Q 544 3141 544 3541 
Q 544 4100 942 4425 
Q 1341 4750 2034 4750 
Q 2731 4750 3128 4425 
Q 3525 4100 3525 3541 
Q 3525 3141 3298 2862 
Q 3072 2584 2669 2484 
Q 3125 2378 3379 2068 
Q 3634 1759 3634 1313 
Q 3634 634 3220 271 
Q 2806 -91 2034 -91 
Q 1263 -91 848 271 
Q 434 634 434 1313 
Q 434 1759 690 2068 
Q 947 2378 1403 2484 
z
M 1172 3481 
Q 1172 3119 1398 2916 
Q 1625 2713 2034 2713 
Q 2441 2713 2670 2916 
Q 2900 3119 2900 3481 
Q 2900 3844 2670 4047 
Q 2441 4250 2034 4250 
Q 1625 4250 1398 4047 
Q 1172 3844 1172 3481 
z
" transform="scale(0.015625)"/>
        <path id="DejaVuSans-30" d="M 2034 4250 
Q 1547 4250 1301 3770 
Q 1056 3291 1056 2328 
Q 1056 1369 1301 889 
Q 1547 409 2034 409 
Q 2525 409 2770 889 
Q 3016 1369 3016 2328 
Q 3016 3291 2770 3770 
Q 2525 4250 2034 4250 
z
M 2034 4750 
Q 2819 4750 3233 4129 
Q 3647 3509 3647 2328 
Q 3647 1150 3233 529 
Q 2819 -91 2034 -91 
Q 1250 -91 836 529 
Q 422 1150 422 2328 
Q 422 3509 836 4129 
Q 1250 4750 2034 4750 
z
" transform="scale(0.015625)"/>
       </defs>
       <use xlink:href="#DejaVuSans-32"/>
       <use xlink:href="#DejaVuSans-38" x="63.623047"/>
       <use xlink:href="#DejaVuSans-30" x="127.246094"/>
      </g>
     </g>
    </g>
    <g id="xtick_2">
     <g id="line2d_2">
      <g>
       <use xlink:href="#m83cb207d2c" x="115.696261" y="390.04" style="stroke: #000000; stroke-width: 0.8"/>
      </g>
     </g>
     <g id="text_2">
      <!-- 290 -->
      <g transform="translate(106.152511 404.638438) scale(0.1 -0.1)">
       <defs>
        <path id="DejaVuSans-39" d="M 703 97 
L 703 672 
Q 941 559 1184 500 
Q 1428 441 1663 441 
Q 2288 441 2617 861 
Q 2947 1281 2994 2138 
Q 2813 1869 2534 1725 
Q 2256 1581 1919 1581 
Q 1219 1581 811 2004 
Q 403 2428 403 3163 
Q 403 3881 828 4315 
Q 1253 4750 1959 4750 
Q 2769 4750 3195 4129 
Q 3622 3509 3622 2328 
Q 3622 1225 3098 567 
Q 2575 -91 1691 -91 
Q 1453 -91 1209 -44 
Q 966 3 703 97 
z
M 1959 2075 
Q 2384 2075 2632 2365 
Q 2881 2656 2881 3163 
Q 2881 3666 2632 3958 
Q 2384 4250 1959 4250 
Q 1534 4250 1286 3958 
Q 1038 3666 1038 3163 
Q 1038 2656 1286 2365 
Q 1534 2075 1959 2075 
z
" transform="scale(0.015625)"/>
       </defs>
       <use xlink:href="#DejaVuSans-32"/>
       <use xlink:href="#DejaVuSans-39" x="63.623047"/>
       <use xlink:href="#DejaVuSans-30" x="127.246094"/>
      </g>
     </g>
    </g>
    <g id="xtick_3">
     <g id="line2d_3">
      <g>
       <use xlink:href="#m83cb207d2c" x="183.686003" y="390.04" style="stroke: #000000; stroke-width: 0.8"/>
      </g>
     </g>
     <g id="text_3">
      <!-- 300 -->
      <g transform="translate(174.142253 404.638438) scale(0.1 -0.1)">
       <defs>
        <path id="DejaVuSans-33" d="M 2597 2516 
Q 3050 2419 3304 2112 
Q 3559 1806 3559 1356 
Q 3559 666 3084 287 
Q 2609 -91 1734 -91 
Q 1441 -91 1130 -33 
Q 819 25 488 141 
L 488 750 
Q 750 597 1062 519 
Q 1375 441 1716 441 
Q 2309 441 2620 675 
Q 2931 909 2931 1356 
Q 2931 1769 2642 2001 
Q 2353 2234 1838 2234 
L 1294 2234 
L 1294 2753 
L 1863 2753 
Q 2328 2753 2575 2939 
Q 2822 3125 2822 3475 
Q 2822 3834 2567 4026 
Q 2313 4219 1838 4219 
Q 1578 4219 1281 4162 
Q 984 4106 628 3988 
L 628 4550 
Q 988 4650 1302 4700 
Q 1616 4750 1894 4750 
Q 2613 4750 3031 4423 
Q 3450 4097 3450 3541 
Q 3450 3153 3228 2886 
Q 3006 2619 2597 2516 
z
" transform="scale(0.015625)"/>
       </defs>
       <use xlink:href="#DejaVuSans-33"/>
       <use xlink:href="#DejaVuSans-30" x="63.623047"/>
       <use xlink:href="#DejaVuSans-30" x="127.246094"/>
      </g>
     </g>
    </g>
    <g id="xtick_4">
     <g id="line2d_4">
      <g>
       <use xlink:href="#m83cb207d2c" x="251.675745" y="390.04" style="stroke: #000000; stroke-width: 0.8"/>
      </g>
     </g>
     <g id="text_4">
      <!-- 310 -->
      <g transform="translate(242.131995 404.638438) scale(0.1 -0.1)">
       <defs>
        <path id="DejaVuSans-31" d="M 794 531 
L 1825 531 
L 1825 4091 
L 703 3866 
L 703 4441 
L 1819 4666 
L 2450 4666 
L 2450 531 
L 3481 531 
L 3481 0 
L 794 0 
L 794 531 
z
" transform="scale(0.015625)"/>
       </defs>
       <use xlink:href="#DejaVuSans-33"/>
       <use xlink:href="#DejaVuSans-31" x="63.623047"/>
       <use xlink:href="#DejaVuSans-30" x="127.246094"/>
      </g>
     </g>
    </g>
    <g id="xtick_5">
     <g id="line2d_5">
      <g>
       <use xlink:href="#m83cb207d2c" x="319.665486" y="390.04" style="stroke: #000000; stroke-width: 0.8"/>
      </g>
     </g>
     <g id="text_5">
      <!-- 320 -->
      <g transform="translate(310.121736 404.638438) scale(0.1 -0.1)">
       <use xlink:href="#DejaVuSans-33"/>
       <use xlink:href="#DejaVuSans-32" x="63.623047"/>
       <use xlink:href="#DejaVuSans-30" x="127.246094"/>
      </g>
     </g>
    </g>
    <g id="xtick_6">
     <g id="line2d_6">
      <g>
       <use xlink:href="#m83cb207d2c" x="387.655228" y="390.04" style="stroke: #000000; stroke-width: 0.8"/>
      </g>
     </g>
     <g id="text_6">
      <!-- 330 -->
      <g transform="translate(378.111478 404.638438) scale(0.1 -0.1)">
       <use xlink:href="#DejaVuSans-33"/>
       <use xlink:href="#DejaVuSans-33" x="63.623047"/>
       <use xlink:href="#DejaVuSans-30" x="127.246094"/>
      </g>
     </g>
    </g>
    <g id="xtick_7">
     <g id="line2d_7">
      <g>
       <use xlink:href="#m83cb207d2c" x="455.64497" y="390.04" style="stroke: #000000; stroke-width: 0.8"/>
      </g>
     </g>
     <g id="text_7">
      <!-- 340 -->
      <g transform="translate(446.10122 404.638438) scale(0.1 -0.1)">
       <defs>
        <path id="DejaVuSans-34" d="M 2419 4116 
L 825 1625 
L 2419 1625 
L 2419 4116 
z
M 2253 4666 
L 3047 4666 
L 3047 1625 
L 3713 1625 
L 3713 1100 
L 3047 1100 
L 3047 0 
L 2419 0 
L 2419 1100 
L 313 1100 
L 313 1709 
L 2253 4666 
z
" transform="scale(0.015625)"/>
       </defs>
       <use xlink:href="#DejaVuSans-33"/>
       <use xlink:href="#DejaVuSans-34" x="63.623047"/>
       <use xlink:href="#DejaVuSans-30" x="127.246094"/>
      </g>
     </g>
    </g>
    <g id="xtick_8">
     <g id="line2d_8">
      <g>
       <use xlink:href="#m83cb207d2c" x="523.634711" y="390.04" style="stroke: #000000; stroke-width: 0.8"/>
      </g>
     </g>
     <g id="text_8">
      <!-- 350 -->
      <g transform="translate(514.090961 404.638438) scale(0.1 -0.1)">
       <defs>
        <path id="DejaVuSans-35" d="M 691 4666 
L 3169 4666 
L 3169 4134 
L 1269 4134 
L 1269 2991 
Q 1406 3038 1543 3061 
Q 1681 3084 1819 3084 
Q 2600 3084 3056 2656 
Q 3513 2228 3513 1497 
Q 3513 744 3044 326 
Q 2575 -91 1722 -91 
Q 1428 -91 1123 -41 
Q 819 9 494 109 
L 494 744 
Q 775 591 1075 516 
Q 1375 441 1709 441 
Q 2250 441 2565 725 
Q 2881 1009 2881 1497 
Q 2881 1984 2565 2268 
Q 2250 2553 1709 2553 
Q 1456 2553 1204 2497 
Q 953 2441 691 2322 
L 691 4666 
z
" transform="scale(0.015625)"/>
       </defs>
       <use xlink:href="#DejaVuSans-33"/>
       <use xlink:href="#DejaVuSans-35" x="63.623047"/>
       <use xlink:href="#DejaVuSans-30" x="127.246094"/>
      </g>
     </g>
    </g>
    <g id="text_9">
     <!-- 52W L  -->
     <g transform="translate(272.479687 418.316562) scale(0.1 -0.1)">
      <defs>
       <path id="DejaVuSans-57" d="M 213 4666 
L 850 4666 
L 1831 722 
L 2809 4666 
L 3519 4666 
L 4500 722 
L 5478 4666 
L 6119 4666 
L 4947 0 
L 4153 0 
L 3169 4050 
L 2175 0 
L 1381 0 
L 213 4666 
z
" transform="scale(0.015625)"/>
       <path id="DejaVuSans-20" transform="scale(0.015625)"/>
       <path id="DejaVuSans-4c" d="M 628 4666 
L 1259 4666 
L 1259 531 
L 3531 531 
L 3531 0 
L 628 0 
L 628 4666 
z
" transform="scale(0.015625)"/>
      </defs>
      <use xlink:href="#DejaVuSans-35"/>
      <use xlink:href="#DejaVuSans-32" x="63.623047"/>
      <use xlink:href="#DejaVuSans-57" x="127.246094"/>
      <use xlink:href="#DejaVuSans-20" x="226.123047"/>
      <use xlink:href="#DejaVuSans-4c" x="257.910156"/>
      <use xlink:href="#DejaVuSans-20" x="313.623047"/>
     </g>
    </g>
   </g>
   <g id="matplotlib.axis_2">
    <g id="ytick_1">
     <g id="line2d_9">
      <defs>
       <path id="m682a5ea36f" d="M 0 0 
L -3.5 0 
" style="stroke: #000000; stroke-width: 0.8"/>
      </defs>
      <g>
       <use xlink:href="#m682a5ea36f" x="14.3" y="208.46" style="stroke: #000000; stroke-width: 0.8"/>
      </g>
     </g>
    </g>
   </g>
   <g id="line2d_10">
    <path d="M 147.65144 208.46 
L 431.84856 208.46 
" clip-path="url(#p11f10c5349)" style="fill: none; stroke: #7a7a7a; stroke-width: 1.5; stroke-linecap: square"/>
   </g>
   <g id="line2d_11">
    <path d="M 238.757694 208.46 
L 429.808868 208.46 
" clip-path="url(#p11f10c5349)" style="fill: none; stroke: #7a7a7a; stroke-width: 4.5; stroke-linecap: square"/>
   </g>
   <g id="patch_3">
    <path d="M 14.3 390.04 
L 14.3 26.88 
" style="fill: none; stroke: #000000; stroke-width: 0.8; stroke-linejoin: miter; stroke-linecap: square"/>
   </g>
   <g id="patch_4">
    <path d="M 565.2 390.04 
L 565.2 26.88 
" style="fill: none; stroke: #000000; stroke-width: 0.8; stroke-linejoin: miter; stroke-linecap: square"/>
   </g>
   <g id="patch_5">
    <path d="M 14.3 390.04 
L 565.2 390.04 
" style="fill: none; stroke: #000000; stroke-width: 0.8; stroke-linejoin: miter; stroke-linecap: square"/>
   </g>
   <g id="patch_6">
    <path d="M 14.3 26.88 
L 565.2 26.88 
" style="fill: none; stroke: #000000; stroke-width: 0.8; stroke-linejoin: miter; stroke-linecap: square"/>
   </g>
   <g id="PathCollection_1">
    <defs>
     <path id="m5149325f62" d="M 0 1.5 
C 0.397805 1.5 0.77937 1.341951 1.06066 1.06066 
C 1.341951 0.77937 1.5 0.397805 1.5 0 
C 1.5 -0.397805 1.341951 -0.77937 1.06066 -1.06066 
C 0.77937 -1.341951 0.397805 -1.5 0 -1.5 
C -0.397805 -1.5 -0.77937 -1.341951 -1.06066 -1.06066 
C -1.341951 -0.77937 -1.5 -0.397805 -1.5 0 
C -1.5 0.397805 -1.341951 0.77937 -1.06066 1.06066 
C -0.77937 1.341951 -0.397805 1.5 0 1.5 
z
" style="stroke: #7a7a7a"/>
    </defs>
    <g clip-path="url(#p11f10c5349)">
     <use xlink:href="#m5149325f62" x="326.804409" y="208.46" style="fill: #ffffff; stroke: #7a7a7a"/>
    </g>
   </g>
   <g id="text_10">
    <!-- 52W L  - Violin Plot -->
    <g transform="translate(233.388437 20.88) scale(0.12 -0.12)">
     <defs>
      <path id="DejaVuSans-2d" d="M 313 2009 
L 1997 2009 
L 1997 1497 
L 313 1497 
L 313 2009 
z
" transform="scale(0.015625)"/>
      <path id="DejaVuSans-56" d="M 1831 0 
L 50 4666 
L 709 4666 
L 2188 738 
L 3669 4666 
L 4325 4666 
L 2547 0 
L 1831 0 
z
" transform="scale(0.015625)"/>
      <path id="DejaVuSans-69" d="M 603 3500 
L 1178 3500 
L 1178 0 
L 603 0 
L 603 3500 
z
M 603 4863 
L 1178 4863 
L 1178 4134 
L 603 4134 
L 603 4863 
z
" transform="scale(0.015625)"/>
      <path id="DejaVuSans-6f" d="M 1959 3097 
Q 1497 3097 1228 2736 
Q 959 2375 959 1747 
Q 959 1119 1226 758 
Q 1494 397 1959 397 
Q 2419 397 2687 759 
Q 2956 1122 2956 1747 
Q 2956 2369 2687 2733 
Q 2419 3097 1959 3097 
z
M 1959 3584 
Q 2709 3584 3137 3096 
Q 3566 2609 3566 1747 
Q 3566 888 3137 398 
Q 2709 -91 1959 -91 
Q 1206 -91 779 398 
Q 353 888 353 1747 
Q 353 2609 779 3096 
Q 1206 3584 1959 3584 
z
" transform="scale(0.015625)"/>
      <path id="DejaVuSans-6c" d="M 603 4863 
L 1178 4863 
L 1178 0 
L 603 0 
L 603 4863 
z
" transform="scale(0.015625)"/>
      <path id="DejaVuSans-6e" d="M 3513 2113 
L 3513 0 
L 2938 0 
L 2938 2094 
Q 2938 2591 2744 2837 
Q 2550 3084 2163 3084 
Q 1697 3084 1428 2787 
Q 1159 2491 1159 1978 
L 1159 0 
L 581 0 
L 581 3500 
L 1159 3500 
L 1159 2956 
Q 1366 3272 1645 3428 
Q 1925 3584 2291 3584 
Q 2894 3584 3203 3211 
Q 3513 2838 3513 2113 
z
" transform="scale(0.015625)"/>
      <path id="DejaVuSans-50" d="M 1259 4147 
L 1259 2394 
L 2053 2394 
Q 2494 2394 2734 2622 
Q 2975 2850 2975 3272 
Q 2975 3691 2734 3919 
Q 2494 4147 2053 4147 
L 1259 4147 
z
M 628 4666 
L 2053 4666 
Q 2838 4666 3239 4311 
Q 3641 3956 3641 3272 
Q 3641 2581 3239 2228 
Q 2838 1875 2053 1875 
L 1259 1875 
L 1259 0 
L 628 0 
L 628 4666 
z
" transform="scale(0.015625)"/>
      <path id="DejaVuSans-74" d="M 1172 4494 
L 1172 3500 
L 2356 3500 
L 2356 3053 
L 1172 3053 
L 1172 1153 
Q 1172 725 1289 603 
Q 1406 481 1766 481 
L 2356 481 
L 2356 0 
L 1766 0 
Q 1100 0 847 248 
Q 594 497 594 1153 
L 594 3053 
L 172 3053 
L 172 3500 
L 594 3500 
L 594 4494 
L 1172 4494 
z
" transform="scale(0.015625)"/>
     </defs>
     <use xlink:href="#DejaVuSans-35"/>
     <use xlink:href="#DejaVuSans-32" x="63.623047"/>
     <use xlink:href="#DejaVuSans-57" x="127.246094"/>
     <use xlink:href="#DejaVuSans-20" x="226.123047"/>
     <use xlink:href="#DejaVuSans-4c" x="257.910156"/>
     <use xlink:href="#DejaVuSans-20" x="313.623047"/>
     <use xlink:href="#DejaVuSans-20" x="345.410156"/>
     <use xlink:href="#DejaVuSans-2d" x="377.197266"/>
     <use xlink:href="#DejaVuSans-20" x="413.28125"/>
     <use xlink:href="#DejaVuSans-56" x="445.068359"/>
     <use xlink:href="#DejaVuSans-69" x="511.226562"/>
     <use xlink:href="#DejaVuSans-6f" x="539.009766"/>
     <use xlink:href="#DejaVuSans-6c" x="600.191406"/>
     <use xlink:href="#DejaVuSans-69" x="627.974609"/>
     <use xlink:href="#DejaVuSans-6e" x="655.757812"/>
     <use xlink:href="#DejaVuSans-20" x="719.136719"/>
     <use xlink:href="#DejaVuSans-50" x="750.923828"/>
     <use xlink:href="#DejaVuSans-6c" x="811.226562"/>
     <use xlink:href="#DejaVuSans-6f" x="839.009766"/>
     <use xlink:href="#DejaVuSans-74" x="900.191406"/>
    </g>
   </g>
  </g>
 </g>
 <defs>
  <clipPath id="p11f10c5349">
   <rect x="14.3" y="26.88" width="550.9" height="363.16"/>
  </clipPath>
 </defs>
</svg>
