<?xml version="1.0" encoding="utf-8" standalone="no"?>
<!DOCTYPE svg PUBLIC "-//W3C//DTD SVG 1.1//EN"
  "http://www.w3.org/Graphics/SVG/1.1/DTD/svg11.dtd">
<svg xmlns:xlink="http://www.w3.org/1999/xlink" width="576pt" height="432pt" viewBox="0 0 576 432" xmlns="http://www.w3.org/2000/svg" version="1.1">
 <metadata>
  <rdf:RDF xmlns:dc="http://purl.org/dc/elements/1.1/" xmlns:cc="http://creativecommons.org/ns#" xmlns:rdf="http://www.w3.org/1999/02/22-rdf-syntax-ns#">
   <cc:Work>
    <dc:type rdf:resource="http://purl.org/dc/dcmitype/StillImage"/>
    <dc:date>1980-01-01T00:00:00+00:00</dc:date>
    <dc:format>image/svg+xml</dc:format>
    <dc:creator>
     <cc:Agent>
      <dc:title>Matplotlib v3.7.2, https://matplotlib.org/</dc:title>
     </cc:Agent>
    </dc:creator>
   </cc:Work>
  </rdf:RDF>
 </metadata>
 <defs>
  <style type="text/css">*{stroke-linejoin: round; stroke-linecap: butt}</style>
 </defs>
 <g id="figure_1">
  <g id="patch_1">
   <path d="M 0 432 
L 576 432 
L 576 0 
L 0 0 
z
" style="fill: #ffffff"/>
  </g>
  <g id="axes_1">
   <g id="patch_2">
    <path d="M 14.3 390.04 
L 565.2 390.04 
L 565.2 26.88 
L 14.3 26.88 
z
" style="fill: #ffffff"/>
   </g>
   <g id="PolyCollection_1">
    <defs>
     <path id="m69b095928b" d="M 39.340909 -209.72521 
L 39.340909 -237.35479 
L 44.399679 -239.007552 
L 49.458448 -240.803875 
L 54.517218 -242.748711 
L 59.575987 -244.846184 
L 64.634757 -247.099456 
L 69.693526 -249.510601 
L 74.752296 -252.080489 
L 79.811065 -254.808676 
L 84.869835 -257.693306 
L 89.928604 -260.731037 
L 94.987374 -263.916978 
L 100.046143 -267.244657 
L 105.104913 -270.706003 
L 110.163682 -274.291369 
L 115.222452 -277.989569 
L 120.281221 -281.787956 
L 125.339991 -285.672519 
L 130.39876 -289.628017 
L 135.45753 -293.638137 
L 140.516299 -297.685674 
L 145.575069 -301.752734 
L 150.633838 -305.820962 
L 155.692608 -309.871768 
L 160.751377 -313.886581 
L 165.810147 -317.847087 
L 170.868916 -321.735475 
L 175.927686 -325.534673 
L 180.986455 -329.228564 
L 186.045225 -332.802186 
L 191.103994 -336.241903 
L 196.162764 -339.535548 
L 201.221534 -342.672528 
L 206.280303 -345.643894 
L 211.339073 -348.442371 
L 216.397842 -351.062348 
L 221.456612 -353.499822 
L 226.515381 -355.752318 
L 231.574151 -357.818756 
L 236.63292 -359.699303 
L 241.69169 -361.395182 
L 246.750459 -362.908481 
L 251.809229 -364.241926 
L 256.867998 -365.398666 
L 261.926768 -366.382046 
L 266.985537 -367.195396 
L 272.044307 -367.841828 
L 277.103076 -368.324064 
L 282.161846 -368.644281 
L 287.220615 -368.804 
L 292.279385 -368.804 
L 297.338154 -368.644281 
L 302.396924 -368.324064 
L 307.455693 -367.841828 
L 312.514463 -367.195396 
L 317.573232 -366.382046 
L 322.632002 -365.398666 
L 327.690771 -364.241926 
L 332.749541 -362.908481 
L 337.80831 -361.395182 
L 342.86708 -359.699303 
L 347.925849 -357.818756 
L 352.984619 -355.752318 
L 358.043388 -353.499822 
L 363.102158 -351.062348 
L 368.160927 -348.442371 
L 373.219697 -345.643894 
L 378.278466 -342.672528 
L 383.337236 -339.535548 
L 388.396006 -336.241903 
L 393.454775 -332.802186 
L 398.513545 -329.228564 
L 403.572314 -325.534673 
L 408.631084 -321.735475 
L 413.689853 -317.847087 
L 418.748623 -313.886581 
L 423.807392 -309.871768 
L 428.866162 -305.820962 
L 433.924931 -301.752734 
L 438.983701 -297.685674 
L 444.04247 -293.638137 
L 449.10124 -289.628017 
L 454.160009 -285.672519 
L 459.218779 -281.787956 
L 464.277548 -277.989569 
L 469.336318 -274.291369 
L 474.395087 -270.706003 
L 479.453857 -267.244657 
L 484.512626 -263.916978 
L 489.571396 -260.731037 
L 494.630165 -257.693306 
L 499.688935 -254.808676 
L 504.747704 -252.080489 
L 509.806474 -249.510601 
L 514.865243 -247.099456 
L 519.924013 -244.846184 
L 524.982782 -242.748711 
L 530.041552 -240.803875 
L 535.100321 -239.007552 
L 540.159091 -237.35479 
L 540.159091 -209.72521 
L 540.159091 -209.72521 
L 535.100321 -208.072448 
L 530.041552 -206.276125 
L 524.982782 -204.331289 
L 519.924013 -202.233816 
L 514.865243 -199.980544 
L 509.806474 -197.569399 
L 504.747704 -194.999511 
L 499.688935 -192.271324 
L 494.630165 -189.386694 
L 489.571396 -186.348963 
L 484.512626 -183.163022 
L 479.453857 -179.835343 
L 474.395087 -176.373997 
L 469.336318 -172.788631 
L 464.277548 -169.090431 
L 459.218779 -165.292044 
L 454.160009 -161.407481 
L 449.10124 -157.451983 
L 444.04247 -153.441863 
L 438.983701 -149.394326 
L 433.924931 -145.327266 
L 428.866162 -141.259038 
L 423.807392 -137.208232 
L 418.748623 -133.193419 
L 413.689853 -129.232913 
L 408.631084 -125.344525 
L 403.572314 -121.545327 
L 398.513545 -117.851436 
L 393.454775 -114.277814 
L 388.396006 -110.838097 
L 383.337236 -107.544452 
L 378.278466 -104.407472 
L 373.219697 -101.436106 
L 368.160927 -98.637629 
L 363.102158 -96.017652 
L 358.043388 -93.580178 
L 352.984619 -91.327682 
L 347.925849 -89.261244 
L 342.86708 -87.380697 
L 337.80831 -85.684818 
L 332.749541 -84.171519 
L 327.690771 -82.838074 
L 322.632002 -81.681334 
L 317.573232 -80.697954 
L 312.514463 -79.884604 
L 307.455693 -79.238172 
L 302.396924 -78.755936 
L 297.338154 -78.435719 
L 292.279385 -78.276 
L 287.220615 -78.276 
L 282.161846 -78.435719 
L 277.103076 -78.755936 
L 272.044307 -79.238172 
L 266.985537 -79.884604 
L 261.926768 -80.697954 
L 256.867998 -81.681334 
L 251.809229 -82.838074 
L 246.750459 -84.171519 
L 241.69169 -85.684818 
L 236.63292 -87.380697 
L 231.574151 -89.261244 
L 226.515381 -91.327682 
L 221.456612 -93.580178 
L 216.397842 -96.017652 
L 211.339073 -98.637629 
L 206.280303 -101.436106 
L 201.221534 -104.407472 
L 196.162764 -107.544452 
L 191.103994 -110.838097 
L 186.045225 -114.277814 
L 180.986455 -117.851436 
L 175.927686 -121.545327 
L 170.868916 -125.344525 
L 165.810147 -129.232913 
L 160.751377 -133.193419 
L 155.692608 -137.208232 
L 150.633838 -141.259038 
L 145.575069 -145.327266 
L 140.516299 -149.394326 
L 135.45753 -153.441863 
L 130.39876 -157.451983 
L 125.339991 -161.407481 
L 120.281221 -165.292044 
L 115.222452 -169.090431 
L 110.163682 -172.788631 
L 105.104913 -176.373997 
L 100.046143 -179.835343 
L 94.987374 -183.163022 
L 89.928604 -186.348963 
L 84.869835 -189.386694 
L 79.811065 -192.271324 
L 74.752296 -194.999511 
L 69.693526 -197.569399 
L 64.634757 -199.980544 
L 59.575987 -202.233816 
L 54.517218 -204.331289 
L 49.458448 -206.276125 
L 44.399679 -208.072448 
L 39.340909 -209.72521 
z
" style="stroke: #7a7a7a; stroke-width: 1.5"/>
    </defs>
    <g clip-path="url(#pf8d37cbe1d)">
     <use xlink:href="#m69b095928b" x="0" y="432" style="fill: #abc9ea; stroke: #7a7a7a; stroke-width: 1.5"/>
    </g>
   </g>
   <g id="matplotlib.axis_1">
    <g id="xtick_1">
     <g id="line2d_1">
      <defs>
       <path id="mf37e88717e" d="M 0 0 
L 0 3.5 
" style="stroke: #000000; stroke-width: 0.8"/>
      </defs>
      <g>
       <use xlink:href="#mf37e88717e" x="72.775822" y="390.04" style="stroke: #000000; stroke-width: 0.8"/>
      </g>
     </g>
     <g id="text_1">
      <!-- 18.0 -->
      <g transform="translate(61.643009 404.638438) scale(0.1 -0.1)">
       <defs>
        <path id="DejaVuSans-31" d="M 794 531 
L 1825 531 
L 1825 4091 
L 703 3866 
L 703 4441 
L 1819 4666 
L 2450 4666 
L 2450 531 
L 3481 531 
L 3481 0 
L 794 0 
L 794 531 
z
" transform="scale(0.015625)"/>
        <path id="DejaVuSans-38" d="M 2034 2216 
Q 1584 2216 1326 1975 
Q 1069 1734 1069 1313 
Q 1069 891 1326 650 
Q 1584 409 2034 409 
Q 2484 409 2743 651 
Q 3003 894 3003 1313 
Q 3003 1734 2745 1975 
Q 2488 2216 2034 2216 
z
M 1403 2484 
Q 997 2584 770 2862 
Q 544 3141 544 3541 
Q 544 4100 942 4425 
Q 1341 4750 2034 4750 
Q 2731 4750 3128 4425 
Q 3525 4100 3525 3541 
Q 3525 3141 3298 2862 
Q 3072 2584 2669 2484 
Q 3125 2378 3379 2068 
Q 3634 1759 3634 1313 
Q 3634 634 3220 271 
Q 2806 -91 2034 -91 
Q 1263 -91 848 271 
Q 434 634 434 1313 
Q 434 1759 690 2068 
Q 947 2378 1403 2484 
z
M 1172 3481 
Q 1172 3119 1398 2916 
Q 1625 2713 2034 2713 
Q 2441 2713 2670 2916 
Q 2900 3119 2900 3481 
Q 2900 3844 2670 4047 
Q 2441 4250 2034 4250 
Q 1625 4250 1398 4047 
Q 1172 3844 1172 3481 
z
" transform="scale(0.015625)"/>
        <path id="DejaVuSans-2e" d="M 684 794 
L 1344 794 
L 1344 0 
L 684 0 
L 684 794 
z
" transform="scale(0.015625)"/>
        <path id="DejaVuSans-30" d="M 2034 4250 
Q 1547 4250 1301 3770 
Q 1056 3291 1056 2328 
Q 1056 1369 1301 889 
Q 1547 409 2034 409 
Q 2525 409 2770 889 
Q 3016 1369 3016 2328 
Q 3016 3291 2770 3770 
Q 2525 4250 2034 4250 
z
M 2034 4750 
Q 2819 4750 3233 4129 
Q 3647 3509 3647 2328 
Q 3647 1150 3233 529 
Q 2819 -91 2034 -91 
Q 1250 -91 836 529 
Q 422 1150 422 2328 
Q 422 3509 836 4129 
Q 1250 4750 2034 4750 
z
" transform="scale(0.015625)"/>
       </defs>
       <use xlink:href="#DejaVuSans-31"/>
       <use xlink:href="#DejaVuSans-38" x="63.623047"/>
       <use xlink:href="#DejaVuSans-2e" x="127.246094"/>
       <use xlink:href="#DejaVuSans-30" x="159.033203"/>
      </g>
     </g>
    </g>
    <g id="xtick_2">
     <g id="line2d_2">
      <g>
       <use xlink:href="#mf37e88717e" x="145.100548" y="390.04" style="stroke: #000000; stroke-width: 0.8"/>
      </g>
     </g>
     <g id="text_2">
      <!-- 18.5 -->
      <g transform="translate(133.967735 404.638438) scale(0.1 -0.1)">
       <defs>
        <path id="DejaVuSans-35" d="M 691 4666 
L 3169 4666 
L 3169 4134 
L 1269 4134 
L 1269 2991 
Q 1406 3038 1543 3061 
Q 1681 3084 1819 3084 
Q 2600 3084 3056 2656 
Q 3513 2228 3513 1497 
Q 3513 744 3044 326 
Q 2575 -91 1722 -91 
Q 1428 -91 1123 -41 
Q 819 9 494 109 
L 494 744 
Q 775 591 1075 516 
Q 1375 441 1709 441 
Q 2250 441 2565 725 
Q 2881 1009 2881 1497 
Q 2881 1984 2565 2268 
Q 2250 2553 1709 2553 
Q 1456 2553 1204 2497 
Q 953 2441 691 2322 
L 691 4666 
z
" transform="scale(0.015625)"/>
       </defs>
       <use xlink:href="#DejaVuSans-31"/>
       <use xlink:href="#DejaVuSans-38" x="63.623047"/>
       <use xlink:href="#DejaVuSans-2e" x="127.246094"/>
       <use xlink:href="#DejaVuSans-35" x="159.033203"/>
      </g>
     </g>
    </g>
    <g id="xtick_3">
     <g id="line2d_3">
      <g>
       <use xlink:href="#mf37e88717e" x="217.425274" y="390.04" style="stroke: #000000; stroke-width: 0.8"/>
      </g>
     </g>
     <g id="text_3">
      <!-- 19.0 -->
      <g transform="translate(206.292461 404.638438) scale(0.1 -0.1)">
       <defs>
        <path id="DejaVuSans-39" d="M 703 97 
L 703 672 
Q 941 559 1184 500 
Q 1428 441 1663 441 
Q 2288 441 2617 861 
Q 2947 1281 2994 2138 
Q 2813 1869 2534 1725 
Q 2256 1581 1919 1581 
Q 1219 1581 811 2004 
Q 403 2428 403 3163 
Q 403 3881 828 4315 
Q 1253 4750 1959 4750 
Q 2769 4750 3195 4129 
Q 3622 3509 3622 2328 
Q 3622 1225 3098 567 
Q 2575 -91 1691 -91 
Q 1453 -91 1209 -44 
Q 966 3 703 97 
z
M 1959 2075 
Q 2384 2075 2632 2365 
Q 2881 2656 2881 3163 
Q 2881 3666 2632 3958 
Q 2384 4250 1959 4250 
Q 1534 4250 1286 3958 
Q 1038 3666 1038 3163 
Q 1038 2656 1286 2365 
Q 1534 2075 1959 2075 
z
" transform="scale(0.015625)"/>
       </defs>
       <use xlink:href="#DejaVuSans-31"/>
       <use xlink:href="#DejaVuSans-39" x="63.623047"/>
       <use xlink:href="#DejaVuSans-2e" x="127.246094"/>
       <use xlink:href="#DejaVuSans-30" x="159.033203"/>
      </g>
     </g>
    </g>
    <g id="xtick_4">
     <g id="line2d_4">
      <g>
       <use xlink:href="#mf37e88717e" x="289.75" y="390.04" style="stroke: #000000; stroke-width: 0.8"/>
      </g>
     </g>
     <g id="text_4">
      <!-- 19.5 -->
      <g transform="translate(278.617188 404.638438) scale(0.1 -0.1)">
       <use xlink:href="#DejaVuSans-31"/>
       <use xlink:href="#DejaVuSans-39" x="63.623047"/>
       <use xlink:href="#DejaVuSans-2e" x="127.246094"/>
       <use xlink:href="#DejaVuSans-35" x="159.033203"/>
      </g>
     </g>
    </g>
    <g id="xtick_5">
     <g id="line2d_5">
      <g>
       <use xlink:href="#mf37e88717e" x="362.074726" y="390.04" style="stroke: #000000; stroke-width: 0.8"/>
      </g>
     </g>
     <g id="text_5">
      <!-- 20.0 -->
      <g transform="translate(350.941914 404.638438) scale(0.1 -0.1)">
       <defs>
        <path id="DejaVuSans-32" d="M 1228 531 
L 3431 531 
L 3431 0 
L 469 0 
L 469 531 
Q 828 903 1448 1529 
Q 2069 2156 2228 2338 
Q 2531 2678 2651 2914 
Q 2772 3150 2772 3378 
Q 2772 3750 2511 3984 
Q 2250 4219 1831 4219 
Q 1534 4219 1204 4116 
Q 875 4013 500 3803 
L 500 4441 
Q 881 4594 1212 4672 
Q 1544 4750 1819 4750 
Q 2544 4750 2975 4387 
Q 3406 4025 3406 3419 
Q 3406 3131 3298 2873 
Q 3191 2616 2906 2266 
Q 2828 2175 2409 1742 
Q 1991 1309 1228 531 
z
" transform="scale(0.015625)"/>
       </defs>
       <use xlink:href="#DejaVuSans-32"/>
       <use xlink:href="#DejaVuSans-30" x="63.623047"/>
       <use xlink:href="#DejaVuSans-2e" x="127.246094"/>
       <use xlink:href="#DejaVuSans-30" x="159.033203"/>
      </g>
     </g>
    </g>
    <g id="xtick_6">
     <g id="line2d_6">
      <g>
       <use xlink:href="#mf37e88717e" x="434.399452" y="390.04" style="stroke: #000000; stroke-width: 0.8"/>
      </g>
     </g>
     <g id="text_6">
      <!-- 20.5 -->
      <g transform="translate(423.26664 404.638438) scale(0.1 -0.1)">
       <use xlink:href="#DejaVuSans-32"/>
       <use xlink:href="#DejaVuSans-30" x="63.623047"/>
       <use xlink:href="#DejaVuSans-2e" x="127.246094"/>
       <use xlink:href="#DejaVuSans-35" x="159.033203"/>
      </g>
     </g>
    </g>
    <g id="xtick_7">
     <g id="line2d_7">
      <g>
       <use xlink:href="#mf37e88717e" x="506.724178" y="390.04" style="stroke: #000000; stroke-width: 0.8"/>
      </g>
     </g>
     <g id="text_7">
      <!-- 21.0 -->
      <g transform="translate(495.591366 404.638438) scale(0.1 -0.1)">
       <use xlink:href="#DejaVuSans-32"/>
       <use xlink:href="#DejaVuSans-31" x="63.623047"/>
       <use xlink:href="#DejaVuSans-2e" x="127.246094"/>
       <use xlink:href="#DejaVuSans-30" x="159.033203"/>
      </g>
     </g>
    </g>
    <g id="text_8">
     <!-- year -->
     <g transform="translate(278.594531 418.316562) scale(0.1 -0.1)">
      <defs>
       <path id="DejaVuSans-79" d="M 2059 -325 
Q 1816 -950 1584 -1140 
Q 1353 -1331 966 -1331 
L 506 -1331 
L 506 -850 
L 844 -850 
Q 1081 -850 1212 -737 
Q 1344 -625 1503 -206 
L 1606 56 
L 191 3500 
L 800 3500 
L 1894 763 
L 2988 3500 
L 3597 3500 
L 2059 -325 
z
" transform="scale(0.015625)"/>
       <path id="DejaVuSans-65" d="M 3597 1894 
L 3597 1613 
L 953 1613 
Q 991 1019 1311 708 
Q 1631 397 2203 397 
Q 2534 397 2845 478 
Q 3156 559 3463 722 
L 3463 178 
Q 3153 47 2828 -22 
Q 2503 -91 2169 -91 
Q 1331 -91 842 396 
Q 353 884 353 1716 
Q 353 2575 817 3079 
Q 1281 3584 2069 3584 
Q 2775 3584 3186 3129 
Q 3597 2675 3597 1894 
z
M 3022 2063 
Q 3016 2534 2758 2815 
Q 2500 3097 2075 3097 
Q 1594 3097 1305 2825 
Q 1016 2553 972 2059 
L 3022 2063 
z
" transform="scale(0.015625)"/>
       <path id="DejaVuSans-61" d="M 2194 1759 
Q 1497 1759 1228 1600 
Q 959 1441 959 1056 
Q 959 750 1161 570 
Q 1363 391 1709 391 
Q 2188 391 2477 730 
Q 2766 1069 2766 1631 
L 2766 1759 
L 2194 1759 
z
M 3341 1997 
L 3341 0 
L 2766 0 
L 2766 531 
Q 2569 213 2275 61 
Q 1981 -91 1556 -91 
Q 1019 -91 701 211 
Q 384 513 384 1019 
Q 384 1609 779 1909 
Q 1175 2209 1959 2209 
L 2766 2209 
L 2766 2266 
Q 2766 2663 2505 2880 
Q 2244 3097 1772 3097 
Q 1472 3097 1187 3025 
Q 903 2953 641 2809 
L 641 3341 
Q 956 3463 1253 3523 
Q 1550 3584 1831 3584 
Q 2591 3584 2966 3190 
Q 3341 2797 3341 1997 
z
" transform="scale(0.015625)"/>
       <path id="DejaVuSans-72" d="M 2631 2963 
Q 2534 3019 2420 3045 
Q 2306 3072 2169 3072 
Q 1681 3072 1420 2755 
Q 1159 2438 1159 1844 
L 1159 0 
L 581 0 
L 581 3500 
L 1159 3500 
L 1159 2956 
Q 1341 3275 1631 3429 
Q 1922 3584 2338 3584 
Q 2397 3584 2469 3576 
Q 2541 3569 2628 3553 
L 2631 2963 
z
" transform="scale(0.015625)"/>
      </defs>
      <use xlink:href="#DejaVuSans-79"/>
      <use xlink:href="#DejaVuSans-65" x="59.179688"/>
      <use xlink:href="#DejaVuSans-61" x="120.703125"/>
      <use xlink:href="#DejaVuSans-72" x="181.982422"/>
     </g>
    </g>
   </g>
   <g id="matplotlib.axis_2">
    <g id="ytick_1">
     <g id="line2d_8">
      <defs>
       <path id="m1accd8021b" d="M 0 0 
L -3.5 0 
" style="stroke: #000000; stroke-width: 0.8"/>
      </defs>
      <g>
       <use xlink:href="#m1accd8021b" x="14.3" y="208.46" style="stroke: #000000; stroke-width: 0.8"/>
      </g>
     </g>
    </g>
   </g>
   <g id="line2d_9">
    <path d="M 217.425274 208.46 
L 362.074726 208.46 
" clip-path="url(#pf8d37cbe1d)" style="fill: none; stroke: #7a7a7a; stroke-width: 1.5; stroke-linecap: square"/>
   </g>
   <g id="line2d_10">
    <path d="M 253.587637 208.46 
L 325.912363 208.46 
" clip-path="url(#pf8d37cbe1d)" style="fill: none; stroke: #7a7a7a; stroke-width: 4.5; stroke-linecap: square"/>
   </g>
   <g id="patch_3">
    <path d="M 14.3 390.04 
L 14.3 26.88 
" style="fill: none; stroke: #000000; stroke-width: 0.8; stroke-linejoin: miter; stroke-linecap: square"/>
   </g>
   <g id="patch_4">
    <path d="M 565.2 390.04 
L 565.2 26.88 
" style="fill: none; stroke: #000000; stroke-width: 0.8; stroke-linejoin: miter; stroke-linecap: square"/>
   </g>
   <g id="patch_5">
    <path d="M 14.3 390.04 
L 565.2 390.04 
" style="fill: none; stroke: #000000; stroke-width: 0.8; stroke-linejoin: miter; stroke-linecap: square"/>
   </g>
   <g id="patch_6">
    <path d="M 14.3 26.88 
L 565.2 26.88 
" style="fill: none; stroke: #000000; stroke-width: 0.8; stroke-linejoin: miter; stroke-linecap: square"/>
   </g>
   <g id="PathCollection_1">
    <defs>
     <path id="m010cc44690" d="M 0 1.5 
C 0.397805 1.5 0.77937 1.341951 1.06066 1.06066 
C 1.341951 0.77937 1.5 0.397805 1.5 0 
C 1.5 -0.397805 1.341951 -0.77937 1.06066 -1.06066 
C 0.77937 -1.341951 0.397805 -1.5 0 -1.5 
C -0.397805 -1.5 -0.77937 -1.341951 -1.06066 -1.06066 
C -1.341951 -0.77937 -1.5 -0.397805 -1.5 0 
C -1.5 0.397805 -1.341951 0.77937 -1.06066 1.06066 
C -0.77937 1.341951 -0.397805 1.5 0 1.5 
z
" style="stroke: #7a7a7a"/>
    </defs>
    <g clip-path="url(#pf8d37cbe1d)">
     <use xlink:href="#m010cc44690" x="289.75" y="208.46" style="fill: #ffffff; stroke: #7a7a7a"/>
    </g>
   </g>
   <g id="text_9">
    <!-- year - Violin Plot -->
    <g transform="translate(240.72625 20.88) scale(0.12 -0.12)">
     <defs>
      <path id="DejaVuSans-20" transform="scale(0.015625)"/>
      <path id="DejaVuSans-2d" d="M 313 2009 
L 1997 2009 
L 1997 1497 
L 313 1497 
L 313 2009 
z
" transform="scale(0.015625)"/>
      <path id="DejaVuSans-56" d="M 1831 0 
L 50 4666 
L 709 4666 
L 2188 738 
L 3669 4666 
L 4325 4666 
L 2547 0 
L 1831 0 
z
" transform="scale(0.015625)"/>
      <path id="DejaVuSans-69" d="M 603 3500 
L 1178 3500 
L 1178 0 
L 603 0 
L 603 3500 
z
M 603 4863 
L 1178 4863 
L 1178 4134 
L 603 4134 
L 603 4863 
z
" transform="scale(0.015625)"/>
      <path id="DejaVuSans-6f" d="M 1959 3097 
Q 1497 3097 1228 2736 
Q 959 2375 959 1747 
Q 959 1119 1226 758 
Q 1494 397 1959 397 
Q 2419 397 2687 759 
Q 2956 1122 2956 1747 
Q 2956 2369 2687 2733 
Q 2419 3097 1959 3097 
z
M 1959 3584 
Q 2709 3584 3137 3096 
Q 3566 2609 3566 1747 
Q 3566 888 3137 398 
Q 2709 -91 1959 -91 
Q 1206 -91 779 398 
Q 353 888 353 1747 
Q 353 2609 779 3096 
Q 1206 3584 1959 3584 
z
" transform="scale(0.015625)"/>
      <path id="DejaVuSans-6c" d="M 603 4863 
L 1178 4863 
L 1178 0 
L 603 0 
L 603 4863 
z
" transform="scale(0.015625)"/>
      <path id="DejaVuSans-6e" d="M 3513 2113 
L 3513 0 
L 2938 0 
L 2938 2094 
Q 2938 2591 2744 2837 
Q 2550 3084 2163 3084 
Q 1697 3084 1428 2787 
Q 1159 2491 1159 1978 
L 1159 0 
L 581 0 
L 581 3500 
L 1159 3500 
L 1159 2956 
Q 1366 3272 1645 3428 
Q 1925 3584 2291 3584 
Q 2894 3584 3203 3211 
Q 3513 2838 3513 2113 
z
" transform="scale(0.015625)"/>
      <path id="DejaVuSans-50" d="M 1259 4147 
L 1259 2394 
L 2053 2394 
Q 2494 2394 2734 2622 
Q 2975 2850 2975 3272 
Q 2975 3691 2734 3919 
Q 2494 4147 2053 4147 
L 1259 4147 
z
M 628 4666 
L 2053 4666 
Q 2838 4666 3239 4311 
Q 3641 3956 3641 3272 
Q 3641 2581 3239 2228 
Q 2838 1875 2053 1875 
L 1259 1875 
L 1259 0 
L 628 0 
L 628 4666 
z
" transform="scale(0.015625)"/>
      <path id="DejaVuSans-74" d="M 1172 4494 
L 1172 3500 
L 2356 3500 
L 2356 3053 
L 1172 3053 
L 1172 1153 
Q 1172 725 1289 603 
Q 1406 481 1766 481 
L 2356 481 
L 2356 0 
L 1766 0 
Q 1100 0 847 248 
Q 594 497 594 1153 
L 594 3053 
L 172 3053 
L 172 3500 
L 594 3500 
L 594 4494 
L 1172 4494 
z
" transform="scale(0.015625)"/>
     </defs>
     <use xlink:href="#DejaVuSans-79"/>
     <use xlink:href="#DejaVuSans-65" x="59.179688"/>
     <use xlink:href="#DejaVuSans-61" x="120.703125"/>
     <use xlink:href="#DejaVuSans-72" x="181.982422"/>
     <use xlink:href="#DejaVuSans-20" x="223.095703"/>
     <use xlink:href="#DejaVuSans-2d" x="254.882812"/>
     <use xlink:href="#DejaVuSans-20" x="290.966797"/>
     <use xlink:href="#DejaVuSans-56" x="322.753906"/>
     <use xlink:href="#DejaVuSans-69" x="388.912109"/>
     <use xlink:href="#DejaVuSans-6f" x="416.695312"/>
     <use xlink:href="#DejaVuSans-6c" x="477.876953"/>
     <use xlink:href="#DejaVuSans-69" x="505.660156"/>
     <use xlink:href="#DejaVuSans-6e" x="533.443359"/>
     <use xlink:href="#DejaVuSans-20" x="596.822266"/>
     <use xlink:href="#DejaVuSans-50" x="628.609375"/>
     <use xlink:href="#DejaVuSans-6c" x="688.912109"/>
     <use xlink:href="#DejaVuSans-6f" x="716.695312"/>
     <use xlink:href="#DejaVuSans-74" x="777.876953"/>
    </g>
   </g>
  </g>
 </g>
 <defs>
  <clipPath id="pf8d37cbe1d">
   <rect x="14.3" y="26.88" width="550.9" height="363.16"/>
  </clipPath>
 </defs>
</svg>
